<svg xmlns="http://www.w3.org/2000/svg" xmlns:xlink="http://www.w3.org/1999/xlink" width="105" height="39" viewBox="0 0 197 75" version="1.1"><g id="surface1"><path style=" stroke:none;fill-rule:nonzero;fill:#000000;fill-opacity:1;" d="M 140.265625 0.75 C 135.324219 2.773438 129.710938 18.824219 128.964844 33.375 C 128.515625 41.023438 127.839844 43.351562 124.472656 47.773438 C 122.300781 50.625 118.035156 52.800781 115.941406 52.125 C 114.21875 51.523438 112.273438 47.625 112.273438 44.625 C 112.273438 43.125 112.644531 42.75 114.070312 42.75 C 118.632812 42.75 122.824219 39.75 125.070312 34.875 C 127.015625 30.675781 126.867188 28.050781 124.546875 25.726562 C 122.902344 24.074219 122.152344 23.851562 118.933594 24.148438 C 114.742188 24.601562 111.597656 26.925781 109.277344 31.5 C 107.707031 34.574219 106.285156 40.949219 106.285156 44.851562 C 106.285156 48.074219 103.441406 53.476562 101.644531 53.851562 C 99.546875 54.226562 99.398438 51.226562 101.042969 43.199219 C 103.363281 31.949219 103.066406 28.199219 99.847656 26.925781 C 97.152344 25.949219 94.53125 27.523438 92.660156 31.425781 C 90.941406 34.875 90.941406 34.875 90.714844 32.625 C 90.417969 29.925781 88.621094 27.75 86.597656 27.75 C 85.851562 27.75 84.054688 28.875 82.707031 30.226562 L 80.164062 32.773438 L 79.9375 30.824219 C 79.789062 29.324219 79.265625 28.800781 77.691406 28.648438 C 74.996094 28.351562 74.25 29.925781 73.652344 37.574219 C 73.050781 46.425781 68.933594 57.300781 66.765625 55.949219 C 65.566406 55.199219 65.640625 52.199219 67.0625 41.851562 C 68.113281 34.574219 68.113281 32.851562 67.363281 31.875 C 65.792969 30 63.320312 30.824219 62.5 33.449219 L 61.75 35.773438 L 59.804688 33.675781 C 55.761719 29.324219 49.847656 31.648438 46.554688 38.925781 C 44.910156 42.375 44.609375 44.324219 44.460938 50.101562 C 44.308594 57.074219 44.308594 57.074219 41.390625 60.523438 C 32.335938 71.324219 18.710938 71.25 12.648438 60.375 C 9.355469 54.523438 8.457031 47.476562 9.878906 38.773438 C 12.351562 23.699219 19.910156 14.25 29.640625 14.25 C 32.558594 14.25 33.457031 14.625 35.628906 16.800781 C 38.769531 19.949219 39.070312 23.175781 36.300781 25.875 C 35.328125 26.925781 34.128906 27.75 33.679688 27.75 C 32.410156 27.75 32.859375 29.25 34.804688 31.199219 C 38.320312 34.726562 43.410156 31.050781 43.410156 24.976562 C 43.410156 11.324219 27.542969 5.699219 14.519531 14.625 C -3.441406 27.074219 -4.941406 63.824219 12.273438 72.976562 C 16.992188 75.449219 25.074219 75.300781 31.210938 72.449219 C 35.554688 70.425781 42.289062 64.5 44.832031 60.375 C 45.433594 59.324219 45.882812 59.175781 46.105469 59.851562 C 46.332031 60.375 47.527344 61.273438 48.726562 61.875 C 50.597656 62.925781 51.195312 62.925781 53.441406 61.949219 C 54.863281 61.351562 56.808594 59.625 57.78125 58.199219 C 58.753906 56.699219 59.652344 55.5 59.878906 55.5 C 60.101562 55.5 60.625 56.625 61 57.898438 C 61.601562 59.773438 62.199219 60.449219 63.769531 60.601562 C 66.839844 60.976562 68.5625 59.625 70.65625 55.351562 L 72.527344 51.375 L 72.601562 55.273438 C 72.601562 59.398438 73.277344 60.375 75.597656 59.625 C 76.644531 59.324219 77.09375 58.273438 77.46875 55.648438 C 79.113281 42.449219 81.507812 33.300781 83.753906 31.949219 C 84.203125 31.648438 84.953125 32.25 85.402344 33.523438 C 86.074219 35.101562 86 38.101562 85.101562 46.125 C 84.128906 55.199219 84.128906 56.773438 85.027344 57.75 C 85.851562 58.574219 86.449219 58.648438 87.347656 58.050781 C 88.320312 57.449219 88.996094 54.824219 90.042969 48.074219 C 91.464844 38.175781 93.710938 31.125 95.507812 30.449219 C 97.378906 29.699219 97.601562 32.175781 96.328125 40.050781 C 94.457031 50.925781 94.609375 54.449219 96.929688 55.949219 C 99.699219 57.75 102.992188 56.699219 105.3125 53.175781 L 107.183594 50.25 L 109.277344 52.5 C 111.074219 54.449219 111.898438 54.75 115.117188 54.75 C 119.53125 54.75 122.75 52.800781 126.117188 48.226562 C 127.316406 46.5 128.589844 45.074219 128.8125 45.074219 C 129.113281 45 129.5625 45.898438 129.859375 47.023438 C 131.207031 52.574219 136.820312 54.300781 140.265625 50.25 L 142.136719 48 L 144.007812 49.875 C 145.054688 50.925781 146.179688 51.75 146.550781 51.75 C 147.898438 51.75 151.269531 48.523438 152.539062 46.050781 L 153.886719 43.425781 L 155.757812 46.273438 C 158.902344 51.226562 164.066406 50.476562 167.734375 44.550781 L 169.457031 41.699219 L 169.980469 43.800781 C 171.253906 48.375 174.695312 49.425781 177.6875 46.125 C 179.933594 43.648438 184.199219 32.25 182.855469 32.25 C 182.554688 32.25 181.207031 34.726562 180.007812 37.726562 C 177.765625 43.125 175.816406 44.699219 175.21875 41.625 C 175.070312 40.800781 175.59375 35.699219 176.265625 30.226562 C 177.390625 21.976562 177.464844 20.101562 176.640625 19.125 C 175.070312 17.175781 172.597656 18.074219 171.703125 20.851562 L 170.953125 23.25 L 169.304688 21 C 167.957031 19.199219 167.0625 18.75 164.816406 18.75 C 163.242188 18.75 161.296875 19.273438 160.324219 19.875 C 156.804688 22.351562 153.4375 31.050781 153.4375 37.574219 C 153.4375 40.425781 150.59375 46.5 149.246094 46.5 C 147.824219 46.5 147.898438 40.425781 149.320312 30.675781 C 150.144531 25.351562 150.21875 22.726562 149.695312 21.75 C 148.796875 20.023438 146.550781 19.800781 145.28125 21.300781 C 144.382812 22.425781 142.210938 36.074219 142.210938 41.101562 C 142.210938 43.648438 141.6875 44.773438 139.742188 46.949219 C 137.421875 49.5 137.195312 49.574219 136.074219 48.449219 C 134.578125 46.949219 133.605469 40.125 134.277344 35.398438 C 134.5 33.523438 135.550781 30.675781 136.523438 29.25 C 141.835938 21.148438 146.476562 7.949219 145.503906 3.523438 C 145.28125 2.398438 144.457031 1.125 143.707031 0.75 C 142.136719 -0.0742188 142.359375 -0.0742188 140.265625 0.75 Z M 142.359375 8.324219 C 142.0625 11.023438 136.222656 26.476562 135.699219 25.949219 C 135.027344 25.351562 138.019531 12.148438 139.964844 7.050781 C 141.015625 4.273438 142.660156 5.175781 142.359375 8.324219 Z M 168.558594 23.773438 C 171.851562 26.699219 169.082031 40.351562 164.515625 43.726562 C 162.496094 45.226562 162.421875 45.226562 160.921875 43.875 C 157.703125 40.949219 159.652344 27.226562 163.691406 24 C 166.011719 22.199219 166.761719 22.125 168.558594 23.773438 Z M 121.777344 28.125 C 122.527344 30.226562 119.757812 35.851562 116.539062 38.773438 C 113.84375 41.175781 113.394531 41.398438 113.171875 40.199219 C 112.644531 37.648438 114.742188 32.101562 117.136719 29.550781 C 119.757812 26.773438 121.027344 26.398438 121.777344 28.125 Z M 59.203125 36.824219 C 60.625 38.25 60.777344 39.074219 60.476562 43.425781 C 59.878906 51.675781 55.6875 58.648438 52.167969 57.300781 C 48.050781 55.726562 49.773438 40.425781 54.414062 36.75 C 56.808594 34.875 57.257812 34.875 59.203125 36.824219 Z M 59.203125 36.824219 "/><path style=" stroke:none;fill-rule:nonzero;fill:#000000;fill-opacity:1;" d="M 114.367188 7.273438 C 112.195312 7.648438 112.121094 8.101562 113.46875 16.949219 L 113.769531 19.199219 L 117.660156 18.75 C 122.078125 18.148438 123.5 16.726562 123.5 12.75 C 123.5 8.398438 119.980469 6.300781 114.367188 7.273438 Z M 119.605469 10.648438 C 121.027344 12.074219 120.65625 14.851562 118.933594 15.824219 C 116.914062 16.875 116.015625 15.75 116.015625 12.148438 C 116.015625 10.351562 116.3125 9.75 117.363281 9.75 C 118.109375 9.75 119.082031 10.125 119.605469 10.648438 Z M 119.605469 10.648438 "/><path style=" stroke:none;fill-rule:nonzero;fill:#000000;fill-opacity:1;" d="M 104.414062 11.398438 L 104.9375 14.625 L 102.019531 11.773438 C 100.445312 10.273438 98.5 9 97.75 9 C 96.554688 9 96.480469 9.523438 96.929688 14.773438 C 97.226562 18 97.601562 20.773438 97.675781 20.851562 C 97.828125 21 98.574219 20.925781 99.324219 20.699219 C 100.445312 20.324219 100.671875 19.648438 100.445312 17.398438 L 100.148438 14.625 L 103.066406 17.476562 C 107.257812 21.449219 108.453125 20.773438 108.003906 14.773438 C 107.554688 8.699219 107.40625 8.25 105.460938 8.25 C 104.039062 8.25 103.964844 8.550781 104.414062 11.398438 Z M 104.414062 11.398438 "/><path style=" stroke:none;fill-rule:nonzero;fill:#000000;fill-opacity:1;" d="M 84.804688 10.648438 C 84.203125 11.476562 81.585938 20.699219 81.585938 22.125 C 81.585938 23.023438 84.429688 22.425781 84.878906 21.375 C 85.328125 20.101562 88.695312 19.875 89.445312 21 C 90.042969 21.976562 92.8125 21.976562 92.8125 21 C 92.8125 20.550781 91.613281 17.851562 90.191406 15 C 87.648438 9.898438 86.226562 8.773438 84.804688 10.648438 Z M 87.570312 16.574219 C 87.570312 16.949219 87.273438 17.25 86.824219 17.25 C 86.449219 17.25 86.074219 16.726562 86.074219 16.050781 C 86.074219 15.449219 86.449219 15.148438 86.824219 15.375 C 87.273438 15.601562 87.570312 16.125 87.570312 16.574219 Z M 87.570312 16.574219 "/><path style=" stroke:none;fill-rule:nonzero;fill:#000000;fill-opacity:1;" d="M 146.101562 10.726562 C 143.558594 13.726562 144.605469 18.75 147.824219 18.75 C 151.042969 18.75 153.363281 12.976562 151.042969 10.648438 C 149.847656 9.449219 147.078125 9.523438 146.101562 10.726562 Z M 146.101562 10.726562 "/><path style=" stroke:none;fill-rule:nonzero;fill:#000000;fill-opacity:1;" d="M 69.609375 11.925781 C 67.0625 12.375 66.988281 12.449219 67.214844 15.375 C 67.664062 22.199219 68.1875 24 69.683594 24 C 70.730469 24 71.105469 23.476562 71.105469 21.75 C 71.105469 19.050781 72.304688 18.824219 73.5 21.375 C 74.023438 22.574219 74.921875 23.25 76.121094 23.25 C 78.140625 23.25 78.214844 23.023438 76.644531 20.625 C 75.746094 19.273438 75.671875 18.523438 76.34375 17.25 C 77.46875 15.148438 76.644531 12.824219 74.324219 11.925781 C 73.351562 11.550781 72.453125 11.324219 72.378906 11.324219 C 72.304688 11.398438 71.03125 11.625 69.609375 11.925781 Z M 73.351562 15.75 C 73.351562 16.726562 72.828125 17.25 71.855469 17.25 C 70.882812 17.25 70.355469 16.726562 70.355469 15.75 C 70.355469 14.773438 70.882812 14.25 71.855469 14.25 C 72.828125 14.25 73.351562 14.773438 73.351562 15.75 Z M 73.351562 15.75 "/><path style=" stroke:none;fill-rule:nonzero;fill:#000000;fill-opacity:1;" d="M 55.3125 13.273438 L 52.542969 13.574219 L 52.917969 18.601562 C 53.441406 25.800781 53.292969 25.648438 57.410156 25.050781 C 59.429688 24.824219 61.449219 24.226562 61.972656 23.851562 C 63.023438 22.949219 63.171875 19.800781 62.273438 19.199219 C 61.898438 18.976562 61.75 17.773438 61.972656 16.574219 C 62.273438 14.625 61.972656 14.175781 60.253906 13.5 C 59.203125 13.125 58.230469 12.824219 58.15625 12.898438 C 58.082031 12.976562 56.808594 13.125 55.3125 13.273438 Z M 59.128906 16.425781 C 59.128906 16.800781 58.605469 17.324219 57.933594 17.550781 C 56.285156 18.226562 56.136719 18.148438 56.136719 16.875 C 56.136719 16.273438 56.808594 15.75 57.632812 15.75 C 58.457031 15.75 59.128906 16.050781 59.128906 16.425781 Z M 59.730469 21.148438 C 59.203125 22.574219 56.882812 22.800781 56.882812 21.449219 C 56.882812 20.699219 57.558594 20.25 58.457031 20.25 C 59.355469 20.25 59.878906 20.625 59.730469 21.148438 Z M 59.730469 21.148438 "/><path style=" stroke:none;fill-rule:nonzero;fill:#000000;fill-opacity:1;" d="M 186.820312 40.648438 C 184.050781 44.625 186.445312 49.5 191.085938 49.5 C 194.230469 49.5 196.328125 47.324219 196.328125 44.25 C 196.328125 41.023438 194.230469 39 190.789062 39 C 188.691406 39 187.644531 39.449219 186.820312 40.648438 Z M 193.78125 41.550781 C 194.980469 42.976562 194.53125 46.5 193.03125 47.476562 C 189.738281 49.574219 185.921875 45.601562 187.867188 42.074219 C 188.839844 40.199219 192.433594 39.898438 193.78125 41.550781 Z M 193.78125 41.550781 "/><path style=" stroke:none;fill-rule:nonzero;fill:#000000;fill-opacity:1;" d="M 188.617188 44.175781 C 188.617188 46.5 189.589844 47.25 190.414062 45.523438 C 190.789062 44.773438 190.9375 44.773438 191.3125 45.523438 C 192.058594 47.25 193.03125 46.574219 192.808594 44.398438 C 192.660156 42.824219 192.136719 42.300781 190.5625 42.148438 C 188.839844 41.925781 188.617188 42.148438 188.617188 44.175781 Z M 191.609375 43.050781 C 191.609375 43.273438 191.3125 43.648438 190.863281 43.875 C 190.488281 44.101562 190.113281 43.949219 190.113281 43.574219 C 190.113281 43.125 190.488281 42.75 190.863281 42.75 C 191.3125 42.75 191.609375 42.898438 191.609375 43.050781 Z M 191.609375 43.050781 "/><path style=" stroke:none;fill-rule:nonzero;fill:#000000;fill-opacity:1;" d="M 168.40625 53.398438 C 165.5625 55.800781 156.882812 59.625 149.320312 61.800781 C 131.65625 66.976562 108.679688 68.773438 90.191406 66.449219 C 77.917969 64.949219 63.320312 64.875 57.035156 66.375 C 52.242188 67.5 46.855469 69.898438 46.03125 71.25 C 44.910156 73.125 46.707031 73.125 50.296875 71.324219 C 54.113281 69.449219 54.714844 69.375 66.988281 69.449219 C 77.84375 69.449219 81.210938 69.75 89.816406 71.550781 C 97.828125 73.199219 102.765625 73.726562 113.542969 74.023438 C 137.421875 74.699219 157.179688 71.550781 171.175781 64.726562 C 178.886719 60.976562 178.960938 60.75 174.769531 55.875 C 172.898438 53.625 171.027344 51.75 170.804688 51.75 C 170.503906 51.824219 169.457031 52.5 168.40625 53.398438 Z M 168.40625 53.398438 "/></g></svg>